#!OML:ASF F:\VICON\USERDATA\INSTALL\rory3\rory3.ASF
:FULLY-SPECIFIED
:DEGREES
497
root -15.5692 17.8448 13.446 46.0457 -87.3476 -47.6645
lowerback 10.8226 3.20582 3.88551
upperback 0.359574 4.74501 0.587752
thorax -5.41824 2.23017 -2.27863
lowerneck -25.7517 -1.47948 -7.65313
upperneck 27.9393 -0.422425 3.99793
head 13.8352 -0.515708 2.79766
rclavicle -1.96673e-014 1.98785e-015
rhumerus -28.2571 -9.09396 -78.3796
rradius 32.337
rwrist 4.04457
rhand -15.5431 11.2553
rfingers 7.12502
rthumb 10.6409 -18.4553
lclavicle -1.96673e-014 1.98785e-015
lhumerus -36.4645 3.40546 85.4738
lradius 32.1298
lwrist -5.15957
lhand -18.686 24.0615
lfingers 7.12502
lthumb 7.60822 53.9047
rfemur 0.606581 -1.72468 25.4601
rtibia 22.9459
rfoot -16.9569 -5.48576
rtoes 9.84491
lfemur -19.1904 0.494804 -19.9666
ltibia 20.5985
lfoot -4.35382 6.159
ltoes -7.96787
498
root -15.6729 17.837 13.4542 43.7223 -87.0369 -45.2179
lowerback 10.612 3.1824 4.06288
upperback 0.303588 4.72924 0.594077
thorax -5.34675 2.22022 -2.35603
lowerneck -25.8559 -1.44352 -7.62702
upperneck 28.0555 -0.384827 4.02974
head 13.9032 -0.494487 2.81716
rclavicle 6.27414e-015 2.98177e-015
rhumerus -28.1518 -9.07456 -78.3464
rradius 32.2792
rwrist 4.20812
rhand -15.3559 11.6731
rfingers 7.12502
rthumb 10.8215 -18.0282
lclavicle 6.27414e-015 2.98177e-015
lhumerus -36.429 3.34329 85.4757
lradius 32.2368
lwrist -5.20353
lhand -18.456 24.3514
lfingers 7.12502
lthumb 7.83027 54.1864
rfemur 0.926972 -1.96112 25.5674
rtibia 22.8125
rfoot -17.2298 -5.46585
rtoes 10.1314
lfemur -19.3198 0.350683 -19.9566
ltibia 19.4044
lfoot -4.28433 6.98883
ltoes -7.39048
499
root -15.7742 17.8254 13.4631 41.0303 -86.7351 -42.4855
lowerback 10.4873 3.14631 4.21522
upperback 0.270992 4.69472 0.581187
thorax -5.30035 2.2007 -2.44197
lowerneck -25.8603 -1.40057 -7.49357
upperneck 28.0539 -0.340635 3.91767
head 13.8996 -0.476757 2.75753
rclavicle 4.06266e-015 -5.56597e-015
rhumerus -28.0041 -8.86376 -78.4933
rradius 32.374
rwrist 4.1392
rhand -15.3682 11.2519
rfingers 7.12502
rthumb 10.8096 -18.4499
lclavicle 4.06266e-015 -5.56597e-015
lhumerus -36.399 3.15153 85.5
lradius 32.3499
lwrist -5.12162
lhand -18.1738 24.5744
lfingers 7.12502
lthumb 8.10255 54.399
rfemur 1.27345 -2.31798 25.6113
rtibia 22.7849
rfoot -17.4496 -5.42404
rtoes 9.45964
lfemur -19.3471 0.0192496 -19.9314
ltibia 18.3094
lfoot -4.28172 7.84913
ltoes -6.30579
500
root -15.8721 17.8102 13.4749 37.3499 -86.451 -38.7758
lowerback 10.3557 3.0822 4.29444
upperback 0.276882 4.61089 0.551342
thorax -5.21743 2.16005 -2.49645
lowerneck -25.8989 -1.3742 -7.42489
upperneck 28.0046 -0.297053 3.83502
head 13.8831 -0.46013 2.71992
rclavicle -1.70209e-014 -9.34288e-015
rhumerus -27.7858 -8.68579 -78.638
rradius 32.4166
rwrist 4.16487
rhand -15.4535 10.8382
rfingers 7.12502
rthumb 10.7273 -18.868
lclavicle -1.70209e-014 -9.34288e-015
lhumerus -36.3182 3.04234 85.5022
lradius 32.4526
lwrist -5.03976
lhand -18.0733 24.3562
lfingers 7.12502
lthumb 8.19958 54.1771
rfemur 1.67313 -2.48513 25.5783
rtibia 22.7634
rfoot -17.6589 -5.44257
rtoes 9.12016
lfemur -19.3792 -0.261949 -20.0237
ltibia 17.4267
lfoot -4.21314 8.53887
ltoes -7.40919
501
root -15.9682 17.7975 13.4853 34.2912 -86.241 -35.7036
lowerback 10.2976 3.03778 4.25515
upperback 0.239415 4.54667 0.552372
thorax -5.23197 2.12899 -2.46261
lowerneck -25.9569 -1.35568 -7.50263
upperneck 28.1301 -0.252404 3.88646
head 13.9458 -0.445596 2.76595
rclavicle 3.05134e-014 1.03368e-014
rhumerus -27.64 -8.47861 -78.6365
rradius 32.3195
rwrist 4.192
rhand -15.3846 10.7669
rfingers 7.12502
rthumb 10.7938 -18.9357
lclavicle 3.05134e-014 1.03368e-014
lhumerus -36.3174 3.01959 85.5136
lradius 32.5272
lwrist -5.12781
lhand -18.3964 24.0039
lfingers 7.12502
lthumb 7.88778 53.8368
rfemur 2.15867 -2.31432 25.5441
rtibia 22.6738
rfoot -17.965 -5.55391
rtoes 9.74489
lfemur -19.3665 -1.15406 -19.9952
ltibia 16.8627
lfoot -4.25924 9.70144
ltoes -10.9737
